<svg id="Layer_1" data-name="Layer 1" xmlns="http://www.w3.org/2000/svg" viewBox="0 0 332.6 87.7"><defs><style>.cls-1{fill:#009ddf;}.cls-2{fill:#d40047;}.cls-3,.cls-4{fill:none;}.cls-3{stroke:#000;stroke-miterlimit:10;}.cls-5,.cls-7,.cls-8{isolation:isolate;font-family:GillSansNova-Bold, Gill Sans Nova;font-weight:700;}.cls-5{font-size:36px;}.cls-5,.cls-7,.cls-8,.cls-9{fill:#fff;}.cls-6{letter-spacing:-0.04em;}.cls-7{font-size:50px;}.cls-8{font-size:46px;}</style></defs><rect class="cls-1" x="0.5" y="0.5" width="165.8" height="86.7"/><rect class="cls-2" x="166.3" y="0.5" width="165.8" height="86.7"/><rect class="cls-3" x="0.5" y="0.5" width="331.6" height="86.7"/><rect class="cls-4" x="22.3" y="29.7" width="122.2" height="24.9"/><text class="cls-5" transform="translate(22.32 54.25)">IM<tspan class="cls-6" x="43.38" y="0">A</tspan><tspan x="69.87" y="0">GE</tspan></text><rect class="cls-4" x="192.4" y="23.2" width="27.9" height="34.5"/><text class="cls-7" transform="translate(192.37 57.31)">S</text><rect class="cls-4" x="261.5" y="24.7" width="50.2" height="31.6"/><text class="cls-8" transform="translate(261.52 56.07)">ge</text><path class="cls-9" d="M246.9,25.4c-2.3,1.7-2.8,4.8-1.4,8.9.2,1,.3,2,.5,3l-1.9,1.6c-3.4,1.5-4.3,2.9-5.8,7.9-1.8,6.2-1.5,9.5.8,11.9a8.54,8.54,0,0,1,2,2.8c0,.3-2.2,1.5-5.1,2.7-4.6,1.9-5,2.3-5.2,4.9-.3,3,2.4,5.1,2.6,5.3,4.4,3.7,12.8-2.1,12.7-2.3s-10.5,4.7-13.3,1.4a6.25,6.25,0,0,1-1.4-3.4c0-2,.5-2.7,2.8-3.8l5.6-2.6c3.4-1.5,3.6-3.4.7-5.8-1.8-1.5-2.1-2.2-1.8-5.7.4-4.4,2.8-10.2,4.6-11.1a15.89,15.89,0,0,0,2.4-1.3,4.6,4.6,0,0,0,1.6-1.5,4.71,4.71,0,0,0,.2-2c-.2-1.6-.8-1.7-1.1-3.4a15.56,15.56,0,0,1-.1-2V29.7c0-1.1.1-1.4.1-1.7a1.88,1.88,0,0,1,.4-1c.3-.3.5-.3,1.5-.8a4.77,4.77,0,0,0,.8-.4,3.52,3.52,0,0,1,2.6.5c.5.2.8.3,1,.6a3.38,3.38,0,0,1,.7,1.7,5.92,5.92,0,0,1-.1,2.4c-.6,3.2-.7,3.2-.8,4.1-.2,1.5-.3,3.1.5,4.3.3.4.4.6,2.8,1.5,3,1.1,3.4,1.7,4.6,5.5,2.3,8.1,2.4,9,.8,11a3.53,3.53,0,0,0-1,1.7,3.46,3.46,0,0,0,1,2.9,2.78,2.78,0,0,1-1-2.9,2.3,2.3,0,0,1,1.5-1.7l1.9-1.9-1.4-6.2c-1.8-7.7-2.2-8.4-5.5-9.6-2.8-1-3-2.1-1.8-7.5.8-3.3-.1-6.2-2.2-7.3C250.3,23.9,248.9,24,246.9,25.4Z" transform="translate(-8.7 -6.2)"/><path d="M227.1,53.3" transform="translate(-8.7 -6.2)"/></svg>